<svg width="76" height="28" viewBox="0 0 76 28" fill="none" xmlns="http://www.w3.org/2000/svg">
<path d="M0.52 27V1.08H8.908C9.112 1.08 9.532 1.086 10.168 1.098C10.804 1.11 11.416 1.152 12.004 1.224C14.092 1.476 15.862 2.202 17.314 3.402C18.766 4.602 19.87 6.126 20.626 7.974C21.382 9.822 21.76 11.844 21.76 14.04C21.76 16.236 21.382 18.258 20.626 20.106C19.87 21.954 18.766 23.478 17.314 24.678C15.862 25.878 14.092 26.604 12.004 26.856C11.416 26.928 10.804 26.97 10.168 26.982C9.532 26.994 9.112 27 8.908 27H0.52ZM5.488 22.392H8.908C9.232 22.392 9.67 22.386 10.222 22.374C10.774 22.35 11.272 22.296 11.716 22.212C12.844 21.984 13.762 21.456 14.47 20.628C15.19 19.8 15.718 18.804 16.054 17.64C16.402 16.476 16.576 15.276 16.576 14.04C16.576 12.744 16.396 11.514 16.036 10.35C15.688 9.186 15.154 8.202 14.434 7.398C13.714 6.594 12.808 6.084 11.716 5.868C11.272 5.772 10.774 5.718 10.222 5.706C9.67 5.694 9.232 5.688 8.908 5.688H5.488V22.392ZM26.0786 27V1.08H31.0466L42.3146 18.36V1.08H47.2826V27H42.3146L31.0466 9.72V27H26.0786ZM63.4292 27.54C60.8372 27.54 58.5992 26.976 56.7152 25.848C54.8432 24.72 53.3972 23.142 52.3772 21.114C51.3692 19.086 50.8652 16.728 50.8652 14.04C50.8652 11.352 51.3692 8.994 52.3772 6.966C53.3972 4.938 54.8432 3.36 56.7152 2.232C58.5992 1.104 60.8372 0.539999 63.4292 0.539999C66.4052 0.539999 68.9012 1.278 70.9172 2.754C72.9452 4.23 74.3732 6.228 75.2012 8.748L70.2692 10.116C69.7892 8.544 68.9792 7.326 67.8392 6.462C66.6992 5.586 65.2292 5.148 63.4292 5.148C61.7852 5.148 60.4112 5.514 59.3072 6.246C58.2152 6.978 57.3932 8.01 56.8412 9.342C56.2892 10.674 56.0132 12.24 56.0132 14.04C56.0132 15.84 56.2892 17.406 56.8412 18.738C57.3932 20.07 58.2152 21.102 59.3072 21.834C60.4112 22.566 61.7852 22.932 63.4292 22.932C65.2292 22.932 66.6992 22.494 67.8392 21.618C68.9792 20.742 69.7892 19.524 70.2692 17.964L75.2012 19.332C74.3732 21.852 72.9452 23.85 70.9172 25.326C68.9012 26.802 66.4052 27.54 63.4292 27.54Z" fill="black"/>
</svg>
